<?xml version="1.0" encoding="UTF-8"?>
<svg width="256px" height="116px" viewBox="0 0 256 116" version="1.1" xmlns="http://www.w3.org/2000/svg" preserveAspectRatio="xMidYMid">
    <g>
        <path d="M152.560358,40.8599008 C151.461376,40.8599008 150.361394,41.0598992 149.361412,41.4598961 L84.6628571,41.4598961 C83.9629714,41.4598961 83.3630857,41.0598992 83.0631429,40.4599024 C82.7632,39.8599055 82.8631619,39.1599087 83.3630857,38.6599118 L88.5624381,33.4599213 C89.0623619,32.9599244 89.7622476,32.6599276 90.4621333,32.6599276 L146.561983,32.6599276 C152.560358,32.6599276 157.459767,27.7599386 157.459767,21.7599543 C157.459767,15.7599701 152.560358,10.8599811 146.561983,10.8599811 L99.0610286,10.8599811 C98.3611429,10.8599811 97.7612571,10.4599843 97.4613143,9.85998741 C97.1613714,9.25999055 97.2613333,8.55999371 97.7612571,8.05999685 L102.960609,2.85999371 C103.460533,2.35999685 104.160419,2.05999685 104.860305,2.05999685 L146.561983,2.05999685 C157.459767,2.05999685 166.358596,10.9599811 166.358596,21.8599543 C166.358596,32.7599276 157.459767,41.6598961 146.561983,41.6598961 L152.560358,40.8599008 Z" fill="#F38020"></path>
        <path d="M104.860305,75.0598008 C105.959287,75.0598008 107.059269,74.8598024 108.059251,74.4598055 L172.757806,74.4598055 C173.457692,74.4598055 174.057578,74.8598024 174.35752,75.4598992 C174.657463,76.0598961 174.557501,76.7598929 174.057578,77.2598898 L168.858225,82.4598803 C168.358302,82.9598772 167.658416,83.259874 166.95853,83.259874 L110.85868,83.259874 C104.860305,83.259874 99.9608953,88.159863 99.9608953,94.1598472 C99.9608953,100.159831 104.860305,105.05982 110.85868,105.05982 L158.359729,105.05982 C159.059615,105.05982 159.659501,105.459817 159.959444,106.059814 C160.259387,106.659811 160.159425,107.359808 159.659501,107.859805 L154.46015,113.059808 C153.960226,113.559805 153.26034,113.859805 152.560454,113.859805 L110.85868,113.859805 C99.9608953,113.859805 91.0620667,104.959821 91.0620667,94.0598472 C91.0620667,83.159874 99.9608953,74.2598055 110.85868,74.2598055 L104.860305,75.0598008 Z" fill="#FAAE40"></path>
        <path d="M189.356502,41.4598961 L114.758032,41.4598961 C114.058146,41.4598961 113.45826,41.0598992 113.158317,40.4599024 C112.858375,39.8599055 112.958337,39.1599087 113.45826,38.6599118 L118.657613,33.4599213 C119.157536,32.9599244 119.857422,32.6599276 120.557308,32.6599276 L189.356502,32.6599276 C195.354877,32.6599276 200.254286,27.7599386 200.254286,21.7599543 C200.254286,15.7599701 195.354877,10.8599811 189.356502,10.8599811 L141.862548,10.8599811 C141.162662,10.8599811 140.562776,10.4599843 140.262834,9.85998741 C139.962891,9.25999055 140.062853,8.55999371 140.562776,8.05999685 L145.762129,2.85999685 C146.262052,2.35999685 146.961938,2.05999685 147.661824,2.05999685 L189.356502,2.05999685 C200.254286,2.05999685 209.153115,10.9599811 209.153115,21.8599543 C209.153115,32.7599276 200.254286,41.6598961 189.356502,41.6598961 L189.356502,41.4598961 Z" fill="#F38020"></path>
        <path d="M68.0644191,74.4598055 L142.662889,74.4598055 C143.362775,74.4598055 143.962661,74.8598024 144.262604,75.4598992 C144.562546,76.0598961 144.462584,76.7598929 143.962661,77.2598898 L138.763308,82.4598803 C138.263385,82.9598772 137.563499,83.259874 136.863613,83.259874 L68.0644191,83.259874 C62.0660445,83.259874 57.1666349,88.159863 57.1666349,94.1598472 C57.1666349,100.159831 62.0660445,105.05982 68.0644191,105.05982 L115.558373,105.05982 C116.258259,105.05982 116.858145,105.459817 117.158088,106.059814 C117.45803,106.659811 117.358068,107.359808 116.858145,107.859805 L111.658792,113.059808 C111.158869,113.559805 110.458983,113.859805 109.759097,113.859805 L68.0644191,113.859805 C57.1666349,113.859805 48.2678064,104.959821 48.2678064,94.0598472 C48.2678064,83.159874 57.1666349,74.2598055 68.0644191,74.2598055 L68.0644191,74.4598055 Z" fill="#FAAE40"></path>
        <path d="M30.0692191,41.4598961 L30.0692191,41.4598961 C29.3693334,41.4598961 28.7694477,41.0598992 28.4695048,40.4599024 C28.169562,39.8599055 28.2695239,39.1599087 28.7694477,38.6599118 L33.9688,33.4599213 C34.4687239,32.9599244 35.1686096,32.6599276 35.8684953,32.6599276 L68.0644191,32.6599276 C68.7643048,32.6599276 69.3641905,33.0599244 69.6641334,33.6599213 C69.9640762,34.2599181 69.8641143,34.9599149 69.3641905,35.4599118 L64.1648381,40.6599024 C63.6649143,41.1598992 62.9650286,41.4598961 62.2651429,41.4598961 L30.0692191,41.4598961 Z" fill="#F38020"></path>
        <path d="M1.97139048,74.4598055 L1.97139048,74.4598055 C1.27150476,74.4598055 0.671619048,74.8598024 0.371676191,75.4598992 C0.0717333333,76.0598961 0.171695238,76.7598929 0.671619048,77.2598898 L5.87097143,82.4598803 C6.37089524,82.9598772 7.07078095,83.259874 7.77066667,83.259874 L39.9665905,83.259874 C40.6664762,83.259874 41.2663619,82.8598772 41.5663048,82.2598803 C41.8662476,81.6598835 41.7662857,80.9598866 41.2663619,80.4598898 L36.0670095,75.2598992 C35.5670857,74.7599024 34.8672,74.4598055 34.1673143,74.4598055 L1.97139048,74.4598055 Z" fill="#FAAE40"></path>
        <path d="M45.1680762,57.9598504 L45.1680762,57.9598504 C44.4681905,57.9598504 43.8683048,57.5598535 43.5683619,56.9598567 C43.2684191,56.3598598 43.368381,55.659863 43.8683048,55.1598661 L49.0676571,49.9598756 C49.567581,49.4598787 50.2674667,49.1598819 50.9673524,49.1598819 L83.1632762,49.1598819 C83.8631619,49.1598819 84.4630476,49.5598787 84.7629905,50.1598756 C85.0629333,50.7598724 84.9629714,51.4598693 84.4630476,51.9598661 L79.2636953,57.1598567 C78.7637714,57.6598535 78.0638857,57.9598504 77.364,57.9598504 L45.1680762,57.9598504 Z" fill="#F38020"></path>
        <path d="M17.0703619,57.9598504 L17.0703619,57.9598504 C16.3704762,57.9598504 15.7705905,57.5598535 15.4706476,56.9598567 C15.1707048,56.3598598 15.2706667,55.659863 15.7705905,55.1598661 L20.9699429,49.9598756 C21.4698667,49.4598787 22.1697524,49.1598819 22.8696381,49.1598819 L55.0655619,49.1598819 C55.7654476,49.1598819 56.3653333,49.5598787 56.6652762,50.1598756 C56.965219,50.7598724 56.8652571,51.4598693 56.3653333,51.9598661 L51.165981,57.1598567 C50.6660571,57.6598535 49.9661714,57.9598504 49.2662857,57.9598504 L17.0703619,57.9598504 Z" fill="#FAAE40"></path>
    </g>
</svg>
