<?xml version="1.0" encoding="UTF-8"?>
<svg width="504" height="504" xmlns="http://www.w3.org/2000/svg" viewBox="0 0 504 504">
  <defs>
    <radialGradient id="a" cx="56.35" cy="19.22" r="711.34" gradientTransform="matrix(.39 0 0 .39 41.46 19.5)" gradientUnits="userSpaceOnUse">
      <stop offset="0" stop-color="#fed576"/>
      <stop offset=".26" stop-color="#f47133"/>
      <stop offset=".61" stop-color="#bc3081"/>
      <stop offset="1" stop-color="#4c63d2"/>
    </radialGradient>
  </defs>
  <path d="M251.92.15c-68.27 0-76.7.29-103.5 1.5-26.73 1.22-45 5.46-60.95 11.67-16.5 6.42-30.55 15.05-44.57 29.06S20.44 70.45 14.02 86.95C7.81 102.9 3.57 121.17 2.35 147.9.15 174.7 0 183.13 0 251.39s.29 76.7 1.5 103.5c1.22 26.73 5.46 45 11.67 60.95 6.42 16.5 15.05 30.55 29.06 44.57s28.07 22.64 44.57 29.06c15.95 6.21 34.22 10.45 60.95 11.67 26.8 1.22 35.23 1.5 103.5 1.5s76.7-.29 103.5-1.5c26.73-1.22 45-5.46 60.95-11.67 16.5-6.42 30.55-15.05 44.57-29.06s22.64-28.07 29.06-44.57c6.21-15.95 10.45-34.22 11.67-60.95 1.22-26.8 1.5-35.23 1.5-103.5s-.29-76.7-1.5-103.5c-1.22-26.73-5.46-45-11.67-60.95-6.42-16.5-15.05-30.55-29.06-44.57S449.33 20.44 432.83 14.02C416.88 7.81 398.61 3.57 371.88 2.35 345.09.15 336.66 0 251.92 0z" fill="url(#a)"/>
  <path d="M251.92 66.93c-101.73 0-184.15 82.42-184.15 184.15s82.42 184.15 184.15 184.15S436.07 352.8 436.07 251.08 353.65 66.93 251.92 66.93zm0 303.82c-66.09 0-119.67-53.57-119.67-119.67s53.57-119.67 119.67-119.67 119.67 53.57 119.67 119.67-53.57 119.67-119.67 119.67z" fill="#fff"/>
  <circle cx="441.13" cy="62.87" r="43.05" fill="#fff"/>
</svg>
