<?xml version="1.0" encoding="UTF-8"?>
<svg width="256px" height="256px" viewBox="0 0 256 256" version="1.1" xmlns="http://www.w3.org/2000/svg" preserveAspectRatio="xMidYMid">
    <g>
        <path d="M256,127.9998 C256,198.6918 198.6924,256 128,256 C57.3076,256 0,198.6918 0,127.9998 C0,57.3082 57.3076,0 128,0 C198.6924,0 256,57.3082 256,127.9998" fill="#FF4500"></path>
        <path d="M213.1486,129.0228 C213.1486,117.7736 203.9682,108.5932 192.7184,108.5932 C187.1436,108.5932 182.1154,110.9908 178.6184,114.7112 C163.0748,103.6952 141.4328,96.5376 117.0756,95.784 L128.8944,59.2 L156.9164,65.2292 C157.0444,73.9196 164.1232,80.8644 172.8136,80.8644 C181.6324,80.8644 188.7112,73.7852 188.7112,64.9664 C188.7112,56.1476 181.6324,49.0684 172.8136,49.0684 C166.5496,49.0684 161.1196,52.8856 158.7156,58.3228 L127.2756,51.5028 C125.9316,51.2276 124.5876,52.0428 124.1768,53.3868 L110.8264,95.784 C85.9236,96.4008 63.8756,103.5608 47.9236,114.7112 C44.4268,110.9908 39.2624,108.5932 33.8236,108.5932 C22.5736,108.5932 13.3932,117.7736 13.3932,129.0228 C13.3932,136.7132 17.7564,143.3644 24.0716,146.6224 C23.8036,148.6108 23.6692,150.7352 23.6692,152.8596 C23.6692,182.1324 70.1156,205.9228 127.7324,205.9228 C185.3492,205.9228 231.7956,182.2668 231.7956,152.8596 C231.7956,150.7352 231.6612,148.4764 231.3932,146.488 C237.8444,143.23 242.0716,136.7132 242.0716,129.0228 L213.1486,129.0228 Z M85.5128,142.4124 C85.5128,133.5936 92.5916,126.5148 101.4104,126.5148 C110.2292,126.5148 117.308,133.5936 117.308,142.4124 C117.308,151.2312 110.2292,158.31 101.4104,158.31 C92.5916,158.31 85.5128,151.2312 85.5128,142.4124 Z M154.6484,184.2544 C144.0324,194.8704 125.9316,195.4052 127.7324,195.4052 C129.5332,195.4052 111.2988,194.8704 100.6828,184.2544 C99.0716,182.6432 99.0716,180.0932 100.6828,178.482 C102.294,176.8708 104.844,176.8708 106.4552,178.482 C113.9356,185.9624 125.5208,188.1908 127.598,188.1908 C129.6752,188.1908 141.394,185.9624 148.8744,178.482 C150.4856,176.8708 153.0356,176.8708 154.6468,178.482 C156.258,180.0932 156.258,182.6432 154.6468,184.2544 L154.6484,184.2544 Z M154.1132,158.31 C145.2944,158.31 138.2156,151.2312 138.2156,142.4124 C138.2156,133.5936 145.2944,126.5148 154.1132,126.5148 C162.932,126.5148 170.0108,133.5936 170.0108,142.4124 C170.0108,151.2312 162.932,158.31 154.1132,158.31 Z" fill="#FFFFFF"></path>
    </g>
</svg>
