<?xml version="1.0" encoding="UTF-8"?>
<svg width="512" height="512" xmlns="http://www.w3.org/2000/svg" viewBox="0 0 512 512">
  <circle cx="256" cy="256" r="256" fill="#FF4500"/>
  <path d="M426.666,256c0-20.659-16.767-37.427-37.427-37.427c-10.18,0-19.163,3.893-25.75,10.48c-25.45-18.264-60.781-30.241-99.705-31.738l17.066-79.944l55.392,11.677c0.599,14.073,12.276,25.451,26.648,25.451c14.672,0,26.648-11.977,26.648-26.648c0-14.672-11.977-26.648-26.648-26.648c-10.479,0-19.462,5.988-23.653,14.97L281.52,104.397c-2.995-0.599-5.988,1.498-6.587,4.491l-18.863,89.226c-40.421,1.198-76.949,13.175-103.297,31.738c-6.587-6.288-15.869-10.48-25.75-10.48c-20.659,0-37.427,16.767-37.427,37.427c0,15.271,8.982,28.146,22.156,34.134c-0.599,3.593-0.898,7.485-0.898,11.378c0,57.488,66.769,103.896,149.331,103.896s149.331-46.409,149.331-103.896c0-3.893-0.3-7.485-0.898-11.078C417.684,284.446,426.666,271.271,426.666,256z M362.889,104.397c8.084,0,14.672,6.587,14.672,14.672s-6.587,14.672-14.672,14.672s-14.672-6.587-14.672-14.672S354.805,104.397,362.889,104.397z M135.036,284.446c0-14.672,11.977-26.648,26.648-26.648c14.672,0,26.648,11.977,26.648,26.648c0,14.672-11.977,26.648-26.648,26.648C147.012,311.094,135.036,299.118,135.036,284.446z M270.143,367.38c-18.264,18.264-53.295,19.462-63.475,19.462s-45.211-1.498-63.475-19.462c-2.695-2.695-2.695-7.186,0-9.881c2.695-2.695,7.186-2.695,9.881,0c11.677,11.677,36.229,15.869,53.594,15.869s42.217-4.192,53.594-15.869c2.695-2.695,7.186-2.695,9.881,0C272.838,360.194,272.838,364.685,270.143,367.38z M350.016,311.094c-14.672,0-26.648-11.977-26.648-26.648c0-14.672,11.977-26.648,26.648-26.648c14.672,0,26.648,11.977,26.648,26.648C376.664,299.118,364.688,311.094,350.016,311.094z" fill="#FFFFFF"/>
</svg>
