<?xml version="1.0" encoding="UTF-8"?>
<svg width="256" height="256" xmlns="http://www.w3.org/2000/svg" viewBox="0 0 256 256">
  <path d="M128 0C57.307 0 0 57.307 0 128s57.307 128 128 128 128-57.307 128-128S198.693 0 128 0z" fill="#ffffff"/>
  <path d="M196.86 106.553c-4.653 0-9.173-.88-13.413-2.493-4.24-1.613-8.12-3.92-11.64-6.92-3.52-3-6.333-6.6-8.44-10.8-2.107-4.2-3.16-8.8-3.16-13.8V72h-25.52v86.507c0 3.88-.973 7.387-2.92 10.52-1.947 3.133-4.587 5.613-7.92 7.44-3.333 1.827-7.053 2.74-11.16 2.74-6.107 0-11.253-2.147-15.44-6.44-4.187-4.293-6.28-9.493-6.28-15.6 0-6.107 2.093-11.307 6.28-15.6 4.187-4.293 9.333-6.44 15.44-6.44 1.493 0 2.973.147 4.44.44 1.467.293 2.88.733 4.24 1.32V110.5c-2.667-.693-5.387-1.04-8.16-1.04-5.333 0-10.387 1.027-15.16 3.08-4.773 2.053-8.947 4.84-12.52 8.36-3.573 3.52-6.387 7.667-8.44 12.44-2.053 4.773-3.08 9.853-3.08 15.24 0 5.333 1.027 10.387 3.08 15.16 2.053 4.773 4.867 8.92 8.44 12.44 3.573 3.52 7.747 6.307 12.52 8.36 4.773 2.053 9.827 3.08 15.16 3.08 5.387 0 10.467-1.027 15.24-3.08 4.773-2.053 8.92-4.84 12.44-8.36 3.52-3.52 6.307-7.667 8.36-12.44 2.053-4.773 3.08-9.827 3.08-15.16V89.553c4.8 3.467 10.28 6.2 16.44 8.2 6.16 2 12.573 3 19.24 3v-24.2c0 6.4 2.267 11.867 6.8 16.4 4.533 4.533 10 6.8 16.4 6.8V76.353c-4.907 0-9.08-1.733-12.52-5.2-3.44-3.467-5.16-7.653-5.16-12.56h-24.2c0 4.907-1.733 9.08-5.2 12.52-3.467 3.44-7.653 5.16-12.56 5.16v30.28z" fill="#000000"/>
</svg>
