<?xml version="1.0" encoding="UTF-8"?>
<svg width="159" height="110" xmlns="http://www.w3.org/2000/svg" viewBox="0 0 159 110">
  <g>
    <path d="M154,17.5c-1.82-6.73-7.07-12-13.8-13.8C128.15,0.5,79,0.5,79,0.5s-49.15,0-61.2,3.17 c-6.73,1.82-12,7.07-13.8,13.8C0.83,29.55,0.83,55,0.83,55s0,25.45,3.17,37.5c1.82,6.73,7.07,12,13.8,13.8 c12.05,3.17,61.2,3.17,61.2,3.17s49.15,0,61.2-3.17c6.73-1.82,12-7.07,13.8-13.8C157.17,80.45,157.17,55,157.17,55 S157.17,29.55,154,17.5z" fill="#FF0000"/>
    <polygon points="63.18,78.4 103.47,55 63.18,31.6" fill="#FFFFFF"/>
  </g>
</svg>
