<?xml version="1.0" encoding="UTF-8"?>
<svg width="256px" height="180px" viewBox="0 0 256 180" version="1.1" xmlns="http://www.w3.org/2000/svg" preserveAspectRatio="xMidYMid">
    <g>
        <path d="M250.346,28.075 C247.246,17.095 238.526,8.375 227.546,5.275 C207.546,0.175 127.646,0.175 127.646,0.175 C127.646,0.175 47.746,0.175 27.746,5.275 C16.766,8.375 8.046,17.095 4.946,28.075 C-0.154,48.075 -0.154,90.175 -0.154,90.175 C-0.154,90.175 -0.154,132.275 4.946,152.275 C8.046,163.255 16.766,171.975 27.746,175.075 C47.746,180.175 127.646,180.175 127.646,180.175 C127.646,180.175 207.546,180.175 227.546,175.075 C238.526,171.975 247.246,163.255 250.346,152.275 C255.446,132.275 255.446,90.175 255.446,90.175 C255.446,90.175 255.446,48.075 250.346,28.075" fill="#FF0000"></path>
        <polygon fill="#FFFFFF" points="101.646 127.675 168.646 90.175 101.646 52.675"></polygon>
    </g>
</svg>
